<svg xmlns="http://www.w3.org/2000/svg" width="32.266" height="33.705" viewBox="0 0 32.266 33.705">
    <defs>
        <style>
            .cls-4{fill:#2f3249;stroke:#d7dce5;stroke-width:.25px}
        </style>
    </defs>
    <g id="Group_10159" transform="translate(-39 -438.416)">
        <path id="Path_3246" fill="#fff" d="M37.056 28.662L35 32.234a2.744 2.744 0 0 1-3.751 1l-2.088-1.209a10.724 10.724 0 0 1-2.005 1.154V35.6a2.756 2.756 0 0 1-2.756 2.748h-4.119a2.756 2.756 0 0 1-2.749-2.748v-2.418a10.679 10.679 0 0 1-2.005-1.154l-2.088 1.209a2.744 2.744 0 0 1-3.751-1l-2.06-3.571a2.753 2.753 0 0 1 1-3.751l2.09-1.215a21.829 21.829 0 0 1 0-2.309L8.63 20.184a2.753 2.753 0 0 1-1-3.751l2.06-3.571a2.744 2.744 0 0 1 3.751-1l2.088 1.209a10.724 10.724 0 0 1 2.005-1.154V9.5a2.756 2.756 0 0 1 2.747-2.75H24.4a2.756 2.756 0 0 1 2.751 2.75v2.418a10.679 10.679 0 0 1 2.005 1.154l2.088-1.209a2.744 2.744 0 0 1 3.751 1l2.06 3.571a2.753 2.753 0 0 1-1 3.751l-2.09 1.215a12.193 12.193 0 0 1 0 2.309l2.088 1.209a2.75 2.75 0 0 1 1 3.748z" transform="translate(32.79 432.719)"/>
        <circle id="Ellipse_2510" cx="7.373" cy="7.373" r="7.373" fill="none" transform="translate(47.76 447.896)"/>
        <path id="Path_3254" fill="#2f3249" d="M24.705 39.7h-4.121a3.807 3.807 0 0 1-3.8-3.8v-1.749c-.345-.177-.678-.369-1-.574l-1.513.876a3.8 3.8 0 0 1-5.193-1.39l-2.059-3.57A3.812 3.812 0 0 1 8.4 24.3l1.541-.89c-.007-.355-.007-.768 0-1.123L8.406 21.4a3.812 3.812 0 0 1-1.388-5.186L9.08 12.64a3.8 3.8 0 0 1 5.192-1.388l1.513.876c.32-.205.654-.4 1-.573V9.8a3.8 3.8 0 0 1 3.8-3.8h4.122a3.8 3.8 0 0 1 3.8 3.8v1.754c.345.177.68.369 1 .574l1.514-.878a3.8 3.8 0 0 1 5.192 1.39l2.06 3.57a3.815 3.815 0 0 1-1.386 5.19l-1.52.878c.008.192.011.382.011.573s0 .381-.011.572l1.52.879a3.811 3.811 0 0 1 1.388 5.185l-2.062 3.573a3.794 3.794 0 0 1-5.191 1.388l-1.514-.876c-.322.205-.654.4-1 .574V35.9a3.807 3.807 0 0 1-3.8 3.8zm-8.874-8.426a1.045 1.045 0 0 1 .622.205 9.622 9.622 0 0 0 1.807 1.038 1.057 1.057 0 0 1 .628.965V35.9a1.7 1.7 0 0 0 1.7 1.7h4.122a1.7 1.7 0 0 0 1.69-1.7v-2.414a1.058 1.058 0 0 1 .628-.965 9.65 9.65 0 0 0 1.809-1.039 1.058 1.058 0 0 1 1.15-.062l2.088 1.208a1.69 1.69 0 0 0 2.309-.615l2.062-3.573a1.7 1.7 0 0 0-.617-2.313l-2.089-1.209a1.055 1.055 0 0 1-.52-1.024 11.055 11.055 0 0 0 0-2.083 1.055 1.055 0 0 1 .52-1.024l2.088-1.208a1.7 1.7 0 0 0 .617-2.314l-2.06-3.57a1.69 1.69 0 0 0-2.31-.618l-2.087 1.208a1.056 1.056 0 0 1-1.15-.063 9.776 9.776 0 0 0-1.81-1.041 1.054 1.054 0 0 1-.626-.963V9.8a1.7 1.7 0 0 0-1.694-1.694h-4.123A1.7 1.7 0 0 0 18.89 9.8v2.418a1.055 1.055 0 0 1-.626.963 9.694 9.694 0 0 0-1.807 1.041 1.053 1.053 0 0 1-1.152.063l-2.088-1.209a1.687 1.687 0 0 0-1.289-.169 1.66 1.66 0 0 0-1.021.784l-2.063 3.576a1.7 1.7 0 0 0 .618 2.312l2.088 1.208a1.056 1.056 0 0 1 .52 1.024c-.034.312-.034 1.772 0 2.083a1.054 1.054 0 0 1-.52 1.024l-2.088 1.208a1.7 1.7 0 0 0-.617 2.313l2.059 3.57a1.663 1.663 0 0 0 1.021.786 1.7 1.7 0 0 0 1.291-.169l2.084-1.207a1.068 1.068 0 0 1 .527-.14z" transform="translate(32.487 432.416)"/>
        <path id="Path_3255" d="M20.426 28.852a8.426 8.426 0 1 1 8.426-8.426 8.435 8.435 0 0 1-8.426 8.426zm0-14.746a6.32 6.32 0 1 0 6.32 6.32 6.327 6.327 0 0 0-6.32-6.319z" class="cls-4" transform="translate(34.707 434.842)"/>
        <path id="Path_3256" d="M20.015 22.315l-2.458-2.458a1.057 1.057 0 0 1-.308-.746V15.25h2.107v3.425l2.149 2.149z" class="cls-4" transform="translate(36.829 436.156)"/>
    </g>
</svg>
