<svg xmlns="http://www.w3.org/2000/svg" width="15.833" height="12.317" viewBox="0 0 15.833 12.317">
    <defs>
        <style>
            .cls-1{fill:#fff}
        </style>
    </defs>
    <g id="noun_id_1946991" transform="translate(-2.5 -13)">
        <g id="Group_11200" transform="translate(2.5 13)">
            <path id="Path_3735" d="M20.833 56.6a1.863 1.863 0 0 0-1.733 1.95c0 .333.783.633 1.733.633s1.733-.283 1.733-.633a1.863 1.863 0 0 0-1.733-1.95z" class="cls-1" transform="translate(-16.333 -49.333)"/>
            <circle id="Ellipse_2587" cx=".933" cy=".933" r=".933" class="cls-1" transform="translate(3.567 4.783)"/>
            <path id="Path_3736" d="M16.717 19.4h-3.3v.25A1.415 1.415 0 0 1 12 21.067H8.833a1.415 1.415 0 0 1-1.416-1.417v-.25h-3.3A1.629 1.629 0 0 0 2.5 21.017v8.017a1.629 1.629 0 0 0 1.617 1.616h12.6a1.629 1.629 0 0 0 1.617-1.617v-8.016a1.629 1.629 0 0 0-1.617-1.617zM7 28.817a4.129 4.129 0 0 1-1.517-.25c-.717-.3-.833-.75-.833-.983A2.559 2.559 0 0 1 6 25.267a1.54 1.54 0 0 1-.55-1.183A1.55 1.55 0 1 1 8 25.267a2.6 2.6 0 0 1 1.35 2.317c0 .833-1.183 1.233-2.35 1.233zm8.7-.5h-4.367a.317.317 0 1 1 0-.633H15.7a.317.317 0 1 1 0 .633zm0-2.433h-4.367a.317.317 0 1 1 0-.633H15.7a.316.316 0 0 1 .317.317.328.328 0 0 1-.317.315zm0-2.45h-4.367a.317.317 0 1 1 0-.633H15.7a.317.317 0 1 1 0 .633z" class="cls-1" transform="translate(-2.5 -18.333)"/>
            <path id="Path_3737" d="M36.5 15.117h3.167a.811.811 0 0 0 .8-.8V13.8a.811.811 0 0 0-.8-.8H36.5a.811.811 0 0 0-.8.8v.517a.79.79 0 0 0 .8.8z" class="cls-1" transform="translate(-30.167 -13)"/>
        </g>
    </g>
</svg>
