<svg xmlns:xlink="http://www.w3.org/1999/xlink" xmlns="http://www.w3.org/2000/svg" width="15.333" height="10.733" viewBox="0 0 15.333 10.733">
    <g>
        <g>
            <path fill="#fff" d="M31.85 38.828L25 34.033a1.538 1.538 0 0 1 1.533-1.533H38.8a1.538 1.538 0 0 1 1.533 1.533l-6.85 4.8a1.6 1.6 0 0 1-1.633-.005zm.817 1.755a2.982 2.982 0 0 1-1.7-.5L25 35.9v5.8a1.538 1.538 0 0 0 1.533 1.533H38.8a1.538 1.538 0 0 0 1.533-1.533v-5.8l-5.971 4.18a2.983 2.983 0 0 1-1.695.504z" transform="translate(-25 -32.5) translate(25 32.5) translate(-25 -32.5)"/>
        </g>
    </g>
</svg>