<svg xmlns="http://www.w3.org/2000/svg" width="31.824" height="31.824" viewBox="0 0 31.824 31.824">
    <defs>
        <style>
            .cls-1{fill:none}.cls-2{fill:#ef5e8c}.cls-3{fill:#ecf2f9}
        </style>
    </defs>
    <g id="Group_11036" transform="translate(-39 -608.389)">
        <path id="Path_3268" d="M19.043 11.391h-5.967a1.326 1.326 0 0 1-1.326-1.326V8.076a1.326 1.326 0 0 1 1.326-1.326h5.967a1.326 1.326 0 0 1 1.326 1.326v1.989a1.326 1.326 0 0 1-1.326 1.326z" class="cls-1" transform="translate(34.875 602.633)"/>
        <path id="Path_3269" d="M30.021 33H21.4a2.651 2.651 0 0 1-2.652-2.652V20.4a2.651 2.651 0 0 1 2.652-2.65h8.619a2.651 2.651 0 0 1 2.654 2.65v9.945A2.651 2.651 0 0 1 30.021 33z" class="cls-1" transform="translate(37.156 606.219)"/>
        <path id="Path_3277" d="M18.265 31.868H9.646A3.649 3.649 0 0 1 6 28.221V11.646A3.649 3.649 0 0 1 9.646 8h3.978v1.989H9.646a1.66 1.66 0 0 0-1.657 1.657v16.575a1.66 1.66 0 0 0 1.657 1.657h8.619z" class="cls-2" transform="translate(33 603.041)"/>
        <path id="Path_3278" d="M25.874 16.287h-1.989v-4.641a1.66 1.66 0 0 0-1.657-1.657H18.25V8h3.978a3.649 3.649 0 0 1 3.646 3.646z" class="cls-2" transform="translate(36.993 603.041)"/>
        <path id="Path_3279" d="M19.287 12.63H13.32A2.323 2.323 0 0 1 11 10.309V8.32A2.323 2.323 0 0 1 13.32 6h5.967a2.323 2.323 0 0 1 2.32 2.32v1.989a2.323 2.323 0 0 1-2.32 2.321zM13.32 7.989a.332.332 0 0 0-.331.331v1.989a.332.332 0 0 0 .331.331h5.967a.332.332 0 0 0 .331-.331V8.32a.332.332 0 0 0-.331-.331z" class="cls-2" transform="translate(34.63 602.389)"/>
        <path id="Path_3280" d="M30.265 34.238h-8.619A3.649 3.649 0 0 1 18 30.591v-9.945A3.649 3.649 0 0 1 21.646 17h8.619a3.649 3.649 0 0 1 3.646 3.646v9.945a3.649 3.649 0 0 1-3.646 3.647zM19.989 20.646z" class="cls-2" transform="translate(36.912 605.975)"/>
        <path id="Path_3281" d="M21.75 19.75h5.967v1.989H21.75z" class="cls-3" transform="translate(38.134 606.871)"/>
        <path id="Path_3282" d="M21.75 22.75h5.967v1.989H21.75z" class="cls-3" transform="translate(38.134 607.849)"/>
        <path id="Path_3283" d="M21.75 25.75h5.967v1.989H21.75z" class="cls-3" transform="translate(38.134 608.827)"/>
    </g>
</svg>
