<svg xmlns:xlink="http://www.w3.org/1999/xlink" xmlns="http://www.w3.org/2000/svg" width="20.264" height="20.265" viewBox="0 0 20.264 20.265">
    <defs>
        <style>
            .cls-1{fill:#ff6f55}
        </style>
    </defs>
    <g id="thumbs" transform="rotate(180 10.132 10.133)">
        <g id="color" transform="translate(.633 .633)">
            <g id="Group_10074" transform="translate(0 5.911)">
                <path id="Path_3359" d="M9.705 26.838H7.594a.845.845 0 0 1-.844-.844v-11.4a.845.845 0 0 1 .844-.844h2.111a.845.845 0 0 1 .844.844v11.4a.847.847 0 0 1-.844.844z" class="cls-1" transform="translate(-6.75 -13.75)"/>
            </g>
            <g id="Group_10075" transform="translate(3.801)">
                <path id="Path_3360" d="M23.072 13.505h-4.83a6.5 6.5 0 0 0 .844-3.378c0-2.533-1.267-3.378-2.111-3.378s-1.267.422-1.267 2.533c0 2.955-4.222 5.066-4.222 5.066l-.236.118v9l.236.169s2.955 2.111 9.288 2.111h1.351a3.372 3.372 0 0 0 3.327-2.8l.946-5.488a3.376 3.376 0 0 0-3.327-3.952z" class="cls-1" transform="translate(-11.251 -6.75)"/>
            </g>
        </g>
        <g id="_x31_.5">
            <g id="Group_10082">
                <g id="Group_10079" transform="translate(0 5.911)">
                    <g id="Group_10078">
                        <path id="Path_3363" d="M9.589 27.354H7.478A1.479 1.479 0 0 1 6 25.877v-11.4A1.479 1.479 0 0 1 7.478 13h2.111a1.479 1.479 0 0 1 1.478 1.478v11.4a1.479 1.479 0 0 1-1.478 1.476zM7.478 14.267a.211.211 0 0 0-.211.211v11.4a.211.211 0 0 0 .211.211h2.111a.213.213 0 0 0 .211-.211v-11.4a.211.211 0 0 0-.211-.211z" class="cls-1" transform="translate(-6 -13)"/>
                    </g>
                </g>
                <g id="Group_10081" transform="translate(4.066)">
                    <g id="Group_10080">
                        <path id="Path_3364" d="M22.059 26.265h-1.351c-6.461 0-9.529-2.138-9.656-2.229l-.236-.169.736-1.031.236.169c.026.019 2.9 1.993 8.92 1.993h1.351a2.736 2.736 0 0 0 2.7-2.277l.946-5.488a2.742 2.742 0 0 0-2.7-3.21h-4.83a.633.633 0 0 1-.527-.985 6 6 0 0 0 .738-3.026c0-2.013-.883-2.744-1.478-2.744-.312 0-.633 0-.633 1.9 0 3.308-4.385 5.539-4.572 5.633l-.236.118-.567-1.135.236-.118c.038-.019 3.871-1.973 3.871-4.5 0-1.532.147-3.166 1.9-3.166.949 0 2.744.838 2.744 4.011a7.9 7.9 0 0 1-.478 2.744H23a4.009 4.009 0 0 1 3.951 4.693l-.946 5.488a4 4 0 0 1-3.95 3.329z" class="cls-1" transform="translate(-10.815 -6)"/>
                    </g>
                </g>
            </g>
        </g>
    </g>
</svg>