<svg xmlns="http://www.w3.org/2000/svg" id="find" width="23.991" height="23.999" viewBox="0 0 23.991 23.999">
    <defs>
        <style>
            .cls-1{fill:#55597c}.cls-2{fill:#4e5069}.cls-3{fill:#fff}
        </style>
    </defs>
    <g id="Group_10056" transform="translate(2.714 .74)">
        <circle id="Ellipse_2514" cx="2.221" cy="2.221" r="2.221" class="cls-1"/>
    </g>
    <g id="Group_10057" transform="translate(.74 7.65)">
        <path id="Path_3346" d="M15.14 16.711a2.961 2.961 0 0 0-2.961-2.961H9.711a2.961 2.961 0 0 0-2.961 2.961v4.079a.986.986 0 0 0 .546.882l.882.441a.987.987 0 0 1 .546.887v5.066a.987.987 0 0 0 .987.987h2.468a.987.987 0 0 0 .987-.987V23a.986.986 0 0 1 .546-.882l.882-.441a.987.987 0 0 0 .546-.882z" class="cls-1" transform="translate(-6.75 -13.75)"/>
    </g>
    <g id="Group_10058" transform="translate(12.585 12.585)">
        <circle id="Ellipse_2515" cx="4.195" cy="4.195" r="4.195" class="cls-1"/>
    </g>
    <g id="Group_10059" transform="translate(2.714 .74)">
        <path id="Path_3347" d="M10.971 8.971a2.211 2.211 0 0 1 1.11-1.913 2.221 2.221 0 1 0 0 3.826 2.211 2.211 0 0 1-1.11-1.913z" class="cls-2" transform="translate(-8.75 -6.75)"/>
    </g>
    <g id="Group_10060" transform="translate(.74 7.65)">
        <path id="Path_3348" d="M10.945 28.063V23a.986.986 0 0 0-.546-.882l-.882-.441a.988.988 0 0 1-.546-.883v-4.083a2.961 2.961 0 0 1 2.961-2.961H9.711a2.961 2.961 0 0 0-2.961 2.961v4.079a.986.986 0 0 0 .546.882l.882.441a.987.987 0 0 1 .546.887v5.066a.987.987 0 0 0 .987.987h2.221a.986.986 0 0 1-.987-.986z" class="cls-2" transform="translate(-6.75 -13.75)"/>
    </g>
    <g id="Group_10061" transform="translate(12.585 12.585)">
        <path id="Path_3349" d="M20.971 22.945a4.183 4.183 0 0 1 3.085-4.027 4.2 4.2 0 1 0 0 8.055 4.183 4.183 0 0 1-3.085-4.028z" class="cls-2" transform="translate(-18.75 -18.75)"/>
    </g>
    <g id="Group_10062" transform="translate(1.974)">
        <path id="Path_3350" d="M10.961 11.923a2.961 2.961 0 1 1 2.961-2.961 2.965 2.965 0 0 1-2.961 2.961zm0-4.442a1.481 1.481 0 1 0 1.481 1.481 1.482 1.482 0 0 0-1.481-1.481z" class="cls-3" transform="translate(-8 -6)"/>
    </g>
    <g id="Group_10063" transform="translate(0 6.91)">
        <path id="Path_3351" d="M12.169 29.781H9.7a1.729 1.729 0 0 1-1.727-1.727v-5.067a.247.247 0 0 0-.136-.221l-.883-.441A1.718 1.718 0 0 1 6 20.78V16.7A3.706 3.706 0 0 1 9.7 13h2.468a3.706 3.706 0 0 1 3.7 3.7v4.08a1.717 1.717 0 0 1-.956 1.545l-.883.441a.248.248 0 0 0-.135.221v5.066a1.729 1.729 0 0 1-1.727 1.727zM9.7 14.481A2.224 2.224 0 0 0 7.481 16.7v4.08a.247.247 0 0 0 .136.22l.883.441a1.718 1.718 0 0 1 .955 1.545v5.066a.247.247 0 0 0 .245.248h2.468a.247.247 0 0 0 .247-.247v-5.066a1.717 1.717 0 0 1 .956-1.545l.884-.442a.245.245 0 0 0 .136-.221V16.7a2.224 2.224 0 0 0-2.221-2.221z" class="cls-3" transform="translate(-6 -13)"/>
    </g>
    <g id="Group_10064" transform="translate(11.845 11.845)">
        <path id="Path_3352" d="M22.935 27.871a4.935 4.935 0 1 1 4.935-4.935 4.941 4.941 0 0 1-4.935 4.935zm0-8.39a3.455 3.455 0 1 0 3.455 3.455 3.459 3.459 0 0 0-3.455-3.455z" class="cls-3" transform="translate(-18 -18)"/>
    </g>
    <g id="Group_10065" transform="translate(18.87 18.877)">
        <path id="Path_3353" d="M0 0h1.481v5.764H0z" class="cls-3" transform="rotate(-45 1.264 .523)"/>
    </g>
</svg>
