<svg xmlns:xlink="http://www.w3.org/1999/xlink" xmlns="http://www.w3.org/2000/svg" width="29.4" height="24" viewBox="0 0 29.4 24">
    <path fill="#50d1ef" d="M19.878 149.308a5.4 5.4 0 1 1 0 10.776H4.211a4.213 4.213 0 0 1 0-8.426h.3a6.555 6.555 0 0 1 12.986-1.8 5.365 5.365 0 0 1 2.381-.552z" transform="translate(0 -136.093)"/>
    <path fill="#ffed00" d="M138.928 38.72a.546.546 0 1 1-1.042.324q-.008-.025-.013-.051l-.6-2.267a.546.546 0 0 1 1.042-.324q.008.025.013.051zm-4.028 1.973a.547.547 0 1 1-.777.771l-1.654-1.664a.546.546 0 1 1 .777-.759zm13.9 9.349a.547.547 0 1 1 .3-1.052l2.261.618a.547.547 0 1 1-.3 1.052zm.3-4.48a.546.546 0 0 1-.273-1.055l2.267-.6a.546.546 0 0 1 .273 1.055zm-1.967-4.03a.548.548 0 1 1-.774-.777l1.667-1.649a.547.547 0 1 1 .771.777zm-3.733-2.495a.547.547 0 1 1-1.052-.3l.618-2.261a.547.547 0 1 1 1.052.3zm-.6 2.7a5.715 5.715 0 0 1 2.594 8.546 5.4 5.4 0 0 0-5.559-.456 6.564 6.564 0 0 0-4.321-5.238 5.7 5.7 0 0 1 7.277-2.87z" transform="translate(-122.357 -36.018)"/>
</svg>